<mxfile host="app.diagrams.net" agent="Mozilla/5.0 (Windows NT 10.0; Win64; x64) AppleWebKit/537.36 (KHTML, like Gecko) Chrome/129.0.0.0 Safari/537.36" version="24.7.17">
  <diagram name="Página-1" id="up_K6alBtXLTetLyEhuW">
    <mxGraphModel grid="1" page="1" gridSize="10" guides="1" tooltips="1" connect="1" arrows="1" fold="1" pageScale="1" pageWidth="827" pageHeight="1169" math="0" shadow="0">
      <root>
        <mxCell id="0" />
        <mxCell id="1" parent="0" />
        <mxCell id="5mmfQt6PXEq7xOOgNXYT-8" style="edgeStyle=orthogonalEdgeStyle;rounded=0;orthogonalLoop=1;jettySize=auto;html=1;exitX=0.5;exitY=0.5;exitDx=0;exitDy=0;exitPerimeter=0;" edge="1" parent="1" source="5mmfQt6PXEq7xOOgNXYT-1" target="5mmfQt6PXEq7xOOgNXYT-3">
          <mxGeometry relative="1" as="geometry">
            <Array as="points">
              <mxPoint x="150" y="340" />
              <mxPoint x="150" y="200" />
            </Array>
          </mxGeometry>
        </mxCell>
        <mxCell id="5mmfQt6PXEq7xOOgNXYT-10" style="edgeStyle=orthogonalEdgeStyle;rounded=0;orthogonalLoop=1;jettySize=auto;html=1;exitX=0.5;exitY=0.5;exitDx=0;exitDy=0;exitPerimeter=0;entryX=0;entryY=0.5;entryDx=0;entryDy=0;" edge="1" parent="1" source="5mmfQt6PXEq7xOOgNXYT-1" target="5mmfQt6PXEq7xOOgNXYT-4">
          <mxGeometry relative="1" as="geometry" />
        </mxCell>
        <mxCell id="A6InuTQn_74sKhgQJD_D-2" style="edgeStyle=orthogonalEdgeStyle;rounded=0;orthogonalLoop=1;jettySize=auto;html=1;exitX=0.5;exitY=0.5;exitDx=0;exitDy=0;exitPerimeter=0;entryX=0;entryY=0.5;entryDx=0;entryDy=0;" edge="1" parent="1" source="5mmfQt6PXEq7xOOgNXYT-1" target="A6InuTQn_74sKhgQJD_D-1">
          <mxGeometry relative="1" as="geometry" />
        </mxCell>
        <mxCell id="5mmfQt6PXEq7xOOgNXYT-1" value="Usuario" style="shape=umlActor;verticalLabelPosition=bottom;verticalAlign=top;html=1;outlineConnect=0;fillColor=#B9E0A5;" vertex="1" parent="1">
          <mxGeometry x="80" y="310" width="30" height="60" as="geometry" />
        </mxCell>
        <mxCell id="5mmfQt6PXEq7xOOgNXYT-2" value="" style="swimlane;startSize=0;" vertex="1" parent="1">
          <mxGeometry x="140" y="90" width="440" height="450" as="geometry" />
        </mxCell>
        <mxCell id="5mmfQt6PXEq7xOOgNXYT-11" style="rounded=0;orthogonalLoop=1;jettySize=auto;html=1;exitX=1;exitY=0.5;exitDx=0;exitDy=0;entryX=0;entryY=0.5;entryDx=0;entryDy=0;" edge="1" parent="5mmfQt6PXEq7xOOgNXYT-2" source="5mmfQt6PXEq7xOOgNXYT-3" target="5mmfQt6PXEq7xOOgNXYT-5">
          <mxGeometry relative="1" as="geometry" />
        </mxCell>
        <mxCell id="5mmfQt6PXEq7xOOgNXYT-3" value="Registrar horas trabajas, entrada y salida&amp;nbsp;" style="ellipse;whiteSpace=wrap;html=1;fillColor=#B9E0A5;" vertex="1" parent="5mmfQt6PXEq7xOOgNXYT-2">
          <mxGeometry x="50" y="70" width="120" height="80" as="geometry" />
        </mxCell>
        <mxCell id="A6InuTQn_74sKhgQJD_D-3" style="rounded=0;orthogonalLoop=1;jettySize=auto;html=1;exitX=1;exitY=0.5;exitDx=0;exitDy=0;entryX=0;entryY=0.5;entryDx=0;entryDy=0;" edge="1" parent="5mmfQt6PXEq7xOOgNXYT-2" source="5mmfQt6PXEq7xOOgNXYT-4" target="5mmfQt6PXEq7xOOgNXYT-5">
          <mxGeometry relative="1" as="geometry" />
        </mxCell>
        <mxCell id="5mmfQt6PXEq7xOOgNXYT-4" value="Registrar ausencias, días libres y permisos" style="ellipse;whiteSpace=wrap;html=1;fillColor=#B9E0A5;" vertex="1" parent="5mmfQt6PXEq7xOOgNXYT-2">
          <mxGeometry x="50" y="210" width="120" height="80" as="geometry" />
        </mxCell>
        <mxCell id="5mmfQt6PXEq7xOOgNXYT-5" value="Guardar" style="ellipse;whiteSpace=wrap;html=1;fillColor=#E6D0DE;" vertex="1" parent="5mmfQt6PXEq7xOOgNXYT-2">
          <mxGeometry x="240" y="140" width="120" height="80" as="geometry" />
        </mxCell>
        <mxCell id="A6InuTQn_74sKhgQJD_D-1" value="Generar registro de un empleado" style="ellipse;whiteSpace=wrap;html=1;fillColor=#B9E0A5;" vertex="1" parent="5mmfQt6PXEq7xOOgNXYT-2">
          <mxGeometry x="50" y="350" width="120" height="80" as="geometry" />
        </mxCell>
        <mxCell id="A6InuTQn_74sKhgQJD_D-6" value="Se ve el registro del empleado" style="ellipse;whiteSpace=wrap;html=1;fillColor=#E6D0DE;" vertex="1" parent="5mmfQt6PXEq7xOOgNXYT-2">
          <mxGeometry x="250" y="340" width="120" height="80" as="geometry" />
        </mxCell>
        <mxCell id="A6InuTQn_74sKhgQJD_D-8" style="rounded=0;orthogonalLoop=1;jettySize=auto;html=1;exitX=1;exitY=0.5;exitDx=0;exitDy=0;entryX=0.042;entryY=0.613;entryDx=0;entryDy=0;entryPerimeter=0;" edge="1" parent="5mmfQt6PXEq7xOOgNXYT-2" source="A6InuTQn_74sKhgQJD_D-1" target="A6InuTQn_74sKhgQJD_D-6">
          <mxGeometry relative="1" as="geometry" />
        </mxCell>
        <mxCell id="5mmfQt6PXEq7xOOgNXYT-7" style="edgeStyle=orthogonalEdgeStyle;rounded=0;orthogonalLoop=1;jettySize=auto;html=1;exitX=0.5;exitY=0.5;exitDx=0;exitDy=0;exitPerimeter=0;entryX=1;entryY=0.5;entryDx=0;entryDy=0;" edge="1" parent="1" source="5mmfQt6PXEq7xOOgNXYT-6" target="5mmfQt6PXEq7xOOgNXYT-5">
          <mxGeometry relative="1" as="geometry" />
        </mxCell>
        <mxCell id="A6InuTQn_74sKhgQJD_D-7" style="rounded=0;orthogonalLoop=1;jettySize=auto;html=1;exitX=0.5;exitY=0.5;exitDx=0;exitDy=0;exitPerimeter=0;entryX=1;entryY=0.5;entryDx=0;entryDy=0;" edge="1" parent="1" source="5mmfQt6PXEq7xOOgNXYT-6" target="A6InuTQn_74sKhgQJD_D-6">
          <mxGeometry relative="1" as="geometry" />
        </mxCell>
        <mxCell id="5mmfQt6PXEq7xOOgNXYT-6" value="Sistema" style="shape=umlActor;verticalLabelPosition=bottom;verticalAlign=top;html=1;outlineConnect=0;fillColor=#E6D0DE;" vertex="1" parent="1">
          <mxGeometry x="610" y="310" width="30" height="60" as="geometry" />
        </mxCell>
        <mxCell id="5mmfQt6PXEq7xOOgNXYT-13" value="&lt;font style=&quot;font-size: 24px;&quot;&gt;RRHH&lt;/font&gt;" style="rounded=0;whiteSpace=wrap;html=1;" vertex="1" parent="1">
          <mxGeometry x="140" y="30" width="440" height="60" as="geometry" />
        </mxCell>
      </root>
    </mxGraphModel>
  </diagram>
</mxfile>
